<svg width="147" height="123" viewBox="0 0 147 123" fill="none" xmlns="http://www.w3.org/2000/svg">
<path d="M16 15H133V110H16V15Z" fill="#353737"/>
<g filter="url(#filter0_dd_56_43)">
<path d="M111.751 61.4726C111.85 77.9199 94.7641 91.1808 73.5878 91.0914C52.4115 91.002 35.1642 77.5964 35.0648 61.149C34.9654 44.7016 52.0517 31.4408 73.2279 31.5301C94.4042 31.6195 111.652 45.0252 111.751 61.4726Z" fill="#353737"/>
</g>
<path d="M73.0001 70.9413C86.6001 70.9413 93.0001 61.9707 93.0001 61.9707C93.0001 61.9707 86.6001 53.0001 73.0001 53.0001C59.4001 53.0001 53.0001 61.9707 53.0001 61.9707C53.0001 61.9707 59.4001 70.9413 73.0001 70.9413Z" stroke="url(#paint0_linear_56_43)" stroke-width="1.5" stroke-linecap="round" stroke-linejoin="round"/>
<path d="M72.91 53.0001C65.2974 53.0001 59.1262 57.0706 59.1262 62.0919C59.1262 67.1132 65.2974 71.1838 72.91 71.1838C80.5225 71.1838 86.6937 67.1132 86.6937 62.0919C86.6937 57.0706 80.5225 53.0001 72.91 53.0001Z" fill="url(#paint1_linear_56_43)"/>
<defs>
<filter id="filter0_dd_56_43" x="29.0643" y="25.5297" width="88.687" height="71.5622" filterUnits="userSpaceOnUse" color-interpolation-filters="sRGB">
<feFlood flood-opacity="0" result="BackgroundImageFix"/>
<feColorMatrix in="SourceAlpha" type="matrix" values="0 0 0 0 0 0 0 0 0 0 0 0 0 0 0 0 0 0 127 0" result="hardAlpha"/>
<feOffset dx="-2" dy="-2"/>
<feGaussianBlur stdDeviation="2"/>
<feComposite in2="hardAlpha" operator="out"/>
<feColorMatrix type="matrix" values="0 0 0 0 0.640417 0 0 0 0 0.6625 0 0 0 0 0.6625 0 0 0 0.5 0"/>
<feBlend mode="normal" in2="BackgroundImageFix" result="effect1_dropShadow_56_43"/>
<feColorMatrix in="SourceAlpha" type="matrix" values="0 0 0 0 0 0 0 0 0 0 0 0 0 0 0 0 0 0 127 0" result="hardAlpha"/>
<feOffset dx="2" dy="2"/>
<feGaussianBlur stdDeviation="2"/>
<feComposite in2="hardAlpha" operator="out"/>
<feColorMatrix type="matrix" values="0 0 0 0 0 0 0 0 0 0 0 0 0 0 0 0 0 0 1 0"/>
<feBlend mode="normal" in2="effect1_dropShadow_56_43" result="effect2_dropShadow_56_43"/>
<feBlend mode="normal" in="SourceGraphic" in2="effect2_dropShadow_56_43" result="shape"/>
</filter>
<linearGradient id="paint0_linear_56_43" x1="73.0001" y1="70.9413" x2="73.0001" y2="53.0001" gradientUnits="userSpaceOnUse">
<stop stop-color="#3E52CF"/>
<stop offset="0.276156" stop-color="#4751C8"/>
<stop offset="0.559721" stop-color="#564DBE"/>
<stop offset="1" stop-color="#6147B7"/>
</linearGradient>
<linearGradient id="paint1_linear_56_43" x1="72.91" y1="71.1838" x2="72.91" y2="53.0001" gradientUnits="userSpaceOnUse">
<stop stop-color="#3953D4"/>
<stop offset="0.293369" stop-color="#4751C8"/>
<stop offset="0.610961" stop-color="#5B4CBB"/>
<stop offset="1" stop-color="#6A42B2"/>
</linearGradient>
</defs>
</svg>
