<svg width="202" height="50" viewBox="0 0 202 50" fill="none" xmlns="http://www.w3.org/2000/svg">
<path d="M50 24.8624C50 38.0176 39.055 48.7249 25.5 48.7249C11.945 48.7249 1 38.0176 1 24.8624C1 11.7073 11.945 1 25.5 1C39.055 1 50 11.7073 50 24.8624Z" stroke="url(#paint0_linear_0_1)" stroke-width="2"/>
<ellipse cx="25.5" cy="24.8624" rx="19.5" ry="19.0125" fill="url(#paint1_linear_0_1)"/>
<path d="M69.2852 17.6125V34.675H67.0586V17.6125H69.2852ZM74.7695 17.6125V19.464H61.5859V17.6125H74.7695ZM78.25 23.9875V34.675H76.082V21.9953H78.1914L78.25 23.9875ZM82.2109 21.925L82.1992 23.9406C82.0195 23.9015 81.8477 23.8781 81.6836 23.8703C81.5273 23.8546 81.3477 23.8468 81.1445 23.8468C80.6445 23.8468 80.2031 23.925 79.8203 24.0812C79.4375 24.2375 79.1133 24.4562 78.8477 24.7375C78.582 25.0187 78.3711 25.3546 78.2148 25.7453C78.0664 26.1281 77.9688 26.55 77.9219 27.0109L77.3125 27.3625C77.3125 26.5968 77.3867 25.8781 77.5352 25.2062C77.6914 24.5343 77.9297 23.9406 78.25 23.425C78.5703 22.9015 78.9766 22.4953 79.4688 22.2062C79.9688 21.9093 80.5625 21.7609 81.25 21.7609C81.4062 21.7609 81.5859 21.7804 81.7891 21.8195C81.9922 21.8507 82.1328 21.8859 82.2109 21.925ZM91.2227 32.507V25.9796C91.2227 25.4796 91.1211 25.0461 90.918 24.6789C90.7227 24.3039 90.4258 24.0148 90.0273 23.8117C89.6289 23.6086 89.1367 23.507 88.5508 23.507C88.0039 23.507 87.5234 23.6007 87.1094 23.7882C86.7031 23.9757 86.3828 24.2218 86.1484 24.5265C85.9219 24.8312 85.8086 25.1593 85.8086 25.5109H83.6406C83.6406 25.0578 83.7578 24.6086 83.9922 24.1632C84.2266 23.7179 84.5625 23.3156 85 22.9562C85.4453 22.589 85.9766 22.3 86.5938 22.089C87.2188 21.8703 87.9141 21.7609 88.6797 21.7609C89.6016 21.7609 90.4141 21.9171 91.1172 22.2296C91.8281 22.5421 92.3828 23.0148 92.7812 23.6476C93.1875 24.2726 93.3906 25.0578 93.3906 26.0031V31.9093C93.3906 32.3312 93.4258 32.7804 93.4961 33.257C93.5742 33.7336 93.6875 34.1437 93.8359 34.4875V34.675H91.5742C91.4648 34.425 91.3789 34.0929 91.3164 33.6789C91.2539 33.257 91.2227 32.8664 91.2227 32.507ZM91.5977 26.9875L91.6211 28.5109H89.4297C88.8125 28.5109 88.2617 28.5617 87.7773 28.6632C87.293 28.757 86.8867 28.9015 86.5586 29.0968C86.2305 29.2921 85.9805 29.5382 85.8086 29.8351C85.6367 30.1242 85.5508 30.464 85.5508 30.8546C85.5508 31.2531 85.6406 31.6164 85.8203 31.9445C86 32.2726 86.2695 32.5343 86.6289 32.7296C86.9961 32.9171 87.4453 33.0109 87.9766 33.0109C88.6406 33.0109 89.2266 32.8703 89.7344 32.589C90.2422 32.3078 90.6445 31.964 90.9414 31.5578C91.2461 31.1515 91.4102 30.757 91.4336 30.3742L92.3594 31.4171C92.3047 31.7453 92.1562 32.1086 91.9141 32.507C91.6719 32.9054 91.3477 33.2882 90.9414 33.6554C90.543 34.0148 90.0664 34.3156 89.5117 34.5578C88.9648 34.7921 88.3477 34.9093 87.6602 34.9093C86.8008 34.9093 86.0469 34.7414 85.3984 34.4054C84.7578 34.0695 84.2578 33.6203 83.8984 33.0578C83.5469 32.4875 83.3711 31.8507 83.3711 31.1476C83.3711 30.4679 83.5039 29.8703 83.7695 29.3546C84.0352 28.8312 84.418 28.3976 84.918 28.0539C85.418 27.7023 86.0195 27.4367 86.7227 27.257C87.4258 27.0773 88.2109 26.9875 89.0781 26.9875H91.5977ZM101.875 33.1281C102.391 33.1281 102.867 33.0226 103.305 32.8117C103.742 32.6007 104.102 32.3117 104.383 31.9445C104.664 31.5695 104.824 31.1437 104.863 30.6671H106.926C106.887 31.4171 106.633 32.1164 106.164 32.7648C105.703 33.4054 105.098 33.925 104.348 34.3234C103.598 34.714 102.773 34.9093 101.875 34.9093C100.922 34.9093 100.09 34.7414 99.3789 34.4054C98.6758 34.0695 98.0898 33.6086 97.6211 33.0226C97.1602 32.4367 96.8125 31.7648 96.5781 31.007C96.3516 30.2414 96.2383 29.4328 96.2383 28.5812V28.089C96.2383 27.2375 96.3516 26.4328 96.5781 25.675C96.8125 24.9093 97.1602 24.2336 97.6211 23.6476C98.0898 23.0617 98.6758 22.6007 99.3789 22.2648C100.09 21.9289 100.922 21.7609 101.875 21.7609C102.867 21.7609 103.734 21.964 104.477 22.3703C105.219 22.7687 105.801 23.3156 106.223 24.0109C106.652 24.6984 106.887 25.4796 106.926 26.3546H104.863C104.824 25.8312 104.676 25.3586 104.418 24.9367C104.168 24.5148 103.824 24.1789 103.387 23.9289C102.957 23.6711 102.453 23.5421 101.875 23.5421C101.211 23.5421 100.652 23.675 100.199 23.9406C99.7539 24.1984 99.3984 24.55 99.1328 24.9953C98.875 25.4328 98.6875 25.9211 98.5703 26.4601C98.4609 26.9914 98.4062 27.5343 98.4062 28.089V28.5812C98.4062 29.1359 98.4609 29.6828 98.5703 30.2218C98.6797 30.7609 98.8633 31.2492 99.1211 31.6867C99.3867 32.1242 99.7422 32.4757 100.188 32.7414C100.641 32.9992 101.203 33.1281 101.875 33.1281ZM111.543 16.675V34.675H109.363V16.675H111.543ZM119.289 21.9953L113.758 27.9132L110.664 31.1242L110.488 28.8156L112.703 26.1671L116.641 21.9953H119.289ZM117.309 34.675L112.785 28.6281L113.91 26.6945L119.863 34.675H117.309ZM122.57 17.6125H124.762L130.352 31.5226L135.93 17.6125H138.133L131.195 34.675H129.484L122.57 17.6125ZM121.855 17.6125H123.789L124.105 28.0187V34.675H121.855V17.6125ZM136.902 17.6125H138.836V34.675H136.586V28.0187L136.902 17.6125ZM149.957 32.507V25.9796C149.957 25.4796 149.855 25.0461 149.652 24.6789C149.457 24.3039 149.16 24.0148 148.762 23.8117C148.363 23.6086 147.871 23.507 147.285 23.507C146.738 23.507 146.258 23.6007 145.844 23.7882C145.438 23.9757 145.117 24.2218 144.883 24.5265C144.656 24.8312 144.543 25.1593 144.543 25.5109H142.375C142.375 25.0578 142.492 24.6086 142.727 24.1632C142.961 23.7179 143.297 23.3156 143.734 22.9562C144.18 22.589 144.711 22.3 145.328 22.089C145.953 21.8703 146.648 21.7609 147.414 21.7609C148.336 21.7609 149.148 21.9171 149.852 22.2296C150.562 22.5421 151.117 23.0148 151.516 23.6476C151.922 24.2726 152.125 25.0578 152.125 26.0031V31.9093C152.125 32.3312 152.16 32.7804 152.23 33.257C152.309 33.7336 152.422 34.1437 152.57 34.4875V34.675H150.309C150.199 34.425 150.113 34.0929 150.051 33.6789C149.988 33.257 149.957 32.8664 149.957 32.507ZM150.332 26.9875L150.355 28.5109H148.164C147.547 28.5109 146.996 28.5617 146.512 28.6632C146.027 28.757 145.621 28.9015 145.293 29.0968C144.965 29.2921 144.715 29.5382 144.543 29.8351C144.371 30.1242 144.285 30.464 144.285 30.8546C144.285 31.2531 144.375 31.6164 144.555 31.9445C144.734 32.2726 145.004 32.5343 145.363 32.7296C145.73 32.9171 146.18 33.0109 146.711 33.0109C147.375 33.0109 147.961 32.8703 148.469 32.589C148.977 32.3078 149.379 31.964 149.676 31.5578C149.98 31.1515 150.145 30.757 150.168 30.3742L151.094 31.4171C151.039 31.7453 150.891 32.1086 150.648 32.507C150.406 32.9054 150.082 33.2882 149.676 33.6554C149.277 34.0148 148.801 34.3156 148.246 34.5578C147.699 34.7921 147.082 34.9093 146.395 34.9093C145.535 34.9093 144.781 34.7414 144.133 34.4054C143.492 34.0695 142.992 33.6203 142.633 33.0578C142.281 32.4875 142.105 31.8507 142.105 31.1476C142.105 30.4679 142.238 29.8703 142.504 29.3546C142.77 28.8312 143.152 28.3976 143.652 28.0539C144.152 27.7023 144.754 27.4367 145.457 27.257C146.16 27.0773 146.945 26.9875 147.812 26.9875H150.332ZM160.844 21.9953V23.6593H153.988V21.9953H160.844ZM156.309 18.9132H158.477V31.5343C158.477 31.964 158.543 32.2882 158.676 32.507C158.809 32.7257 158.98 32.8703 159.191 32.9406C159.402 33.0109 159.629 33.0461 159.871 33.0461C160.051 33.0461 160.238 33.0304 160.434 32.9992C160.637 32.9601 160.789 32.9289 160.891 32.9054L160.902 34.675C160.73 34.7296 160.504 34.7804 160.223 34.8273C159.949 34.882 159.617 34.9093 159.227 34.9093C158.695 34.9093 158.207 34.8039 157.762 34.5929C157.316 34.382 156.961 34.0304 156.695 33.5382C156.438 33.0382 156.309 32.3664 156.309 31.5226V18.9132ZM168.648 34.9093C167.766 34.9093 166.965 34.7609 166.246 34.464C165.535 34.1593 164.922 33.7336 164.406 33.1867C163.898 32.6398 163.508 31.9914 163.234 31.2414C162.961 30.4914 162.824 29.6711 162.824 28.7804V28.2882C162.824 27.257 162.977 26.339 163.281 25.5343C163.586 24.7218 164 24.0343 164.523 23.4718C165.047 22.9093 165.641 22.4836 166.305 22.1945C166.969 21.9054 167.656 21.7609 168.367 21.7609C169.273 21.7609 170.055 21.9171 170.711 22.2296C171.375 22.5421 171.918 22.9796 172.34 23.5421C172.762 24.0968 173.074 24.7531 173.277 25.5109C173.48 26.2609 173.582 27.0812 173.582 27.9718V28.9445H164.113V27.175H171.414V27.0109C171.383 26.4484 171.266 25.9015 171.062 25.3703C170.867 24.839 170.555 24.4015 170.125 24.0578C169.695 23.714 169.109 23.5421 168.367 23.5421C167.875 23.5421 167.422 23.6476 167.008 23.8586C166.594 24.0617 166.238 24.3664 165.941 24.7726C165.645 25.1789 165.414 25.675 165.25 26.2609C165.086 26.8468 165.004 27.5226 165.004 28.2882V28.7804C165.004 29.382 165.086 29.9484 165.25 30.4796C165.422 31.0031 165.668 31.464 165.988 31.8625C166.316 32.2609 166.711 32.5734 167.172 32.8C167.641 33.0265 168.172 33.1398 168.766 33.1398C169.531 33.1398 170.18 32.9836 170.711 32.6711C171.242 32.3586 171.707 31.9406 172.105 31.4171L173.418 32.4601C173.145 32.8742 172.797 33.2687 172.375 33.6437C171.953 34.0187 171.434 34.3234 170.816 34.5578C170.207 34.7921 169.484 34.9093 168.648 34.9093ZM183.859 17.6125L187.961 24.1515L192.062 17.6125H194.699L189.309 26.0617L194.828 34.675H192.168L187.961 28.007L183.754 34.675H181.094L186.613 26.0617L181.223 17.6125H183.859Z" fill="white"/>
<path d="M69.2852 17.6125H70.2852V16.6125H69.2852V17.6125ZM69.2852 34.675V35.675H70.2852V34.675H69.2852ZM67.0586 34.675H66.0586V35.675H67.0586V34.675ZM67.0586 17.6125V16.6125H66.0586V17.6125H67.0586ZM74.7695 17.6125H75.7695V16.6125H74.7695V17.6125ZM74.7695 19.464V20.464H75.7695V19.464H74.7695ZM61.5859 19.464H60.5859V20.464H61.5859V19.464ZM61.5859 17.6125V16.6125H60.5859V17.6125H61.5859ZM68.2852 17.6125V34.675H70.2852V17.6125H68.2852ZM69.2852 33.675H67.0586V35.675H69.2852V33.675ZM68.0586 34.675V17.6125H66.0586V34.675H68.0586ZM67.0586 18.6125H69.2852V16.6125H67.0586V18.6125ZM73.7695 17.6125V19.464H75.7695V17.6125H73.7695ZM74.7695 18.464H61.5859V20.464H74.7695V18.464ZM62.5859 19.464V17.6125H60.5859V19.464H62.5859ZM61.5859 18.6125H74.7695V16.6125H61.5859V18.6125ZM78.25 23.9875H79.25V23.9728L79.2496 23.9581L78.25 23.9875ZM78.25 34.675V35.675H79.25V34.675H78.25ZM76.082 34.675H75.082V35.675H76.082V34.675ZM76.082 21.9953V20.9953H75.082V21.9953H76.082ZM78.1914 21.9953L79.191 21.9659L79.1624 20.9953H78.1914V21.9953ZM82.2109 21.925L83.2109 21.9308L83.2145 21.3087L82.6582 21.0305L82.2109 21.925ZM82.1992 23.9406L81.9868 24.9178L83.192 25.1798L83.1992 23.9464L82.1992 23.9406ZM81.6836 23.8703L81.5841 24.8653L81.61 24.8679L81.636 24.8691L81.6836 23.8703ZM78.2148 25.7453L77.2863 25.3739L77.2825 25.3837L78.2148 25.7453ZM77.9219 27.0109L78.4216 27.8771L78.865 27.6213L78.9167 27.1121L77.9219 27.0109ZM77.3125 27.3625H76.3125V29.0939L77.8122 28.2286L77.3125 27.3625ZM77.5352 25.2062L76.5611 24.9797L76.5587 24.9905L77.5352 25.2062ZM78.25 23.425L79.0995 23.9527L79.103 23.9469L78.25 23.425ZM79.4688 22.2062L79.9752 23.0685L79.9793 23.0661L79.4688 22.2062ZM81.7891 21.8195L81.6002 22.8015L81.6186 22.805L81.637 22.8079L81.7891 21.8195ZM77.25 23.9875V34.675H79.25V23.9875H77.25ZM78.25 33.675H76.082V35.675H78.25V33.675ZM77.082 34.675V21.9953H75.082V34.675H77.082ZM76.082 22.9953H78.1914V20.9953H76.082V22.9953ZM77.1918 22.0247L77.2504 24.0169L79.2496 23.9581L79.191 21.9659L77.1918 22.0247ZM81.211 21.9191L81.1992 23.9348L83.1992 23.9464L83.2109 21.9308L81.211 21.9191ZM82.4116 22.9634C82.184 22.9139 81.9568 22.8821 81.7312 22.8714L81.636 24.8691C81.7385 24.874 81.855 24.8891 81.9868 24.9178L82.4116 22.9634ZM81.7831 22.8752C81.5858 22.8555 81.3718 22.8468 81.1445 22.8468V24.8468C81.3235 24.8468 81.4688 24.8538 81.5841 24.8653L81.7831 22.8752ZM81.1445 22.8468C80.5414 22.8468 79.9675 22.9411 79.4424 23.1554L80.1982 25.0071C80.4388 24.9089 80.7477 24.8468 81.1445 24.8468V22.8468ZM79.4424 23.1554C78.9367 23.3618 78.4909 23.6588 78.1206 24.0508L79.5747 25.4241C79.7357 25.2536 79.9383 25.1132 80.1982 25.0071L79.4424 23.1554ZM78.1206 24.0508C77.7613 24.4313 77.4852 24.8767 77.2864 25.3739L79.1433 26.1167C79.257 25.8326 79.4027 25.6061 79.5747 25.4241L78.1206 24.0508ZM77.2825 25.3837C77.0978 25.8601 76.9818 26.3708 76.927 26.9097L78.9167 27.1121C78.9557 26.7291 79.035 26.3961 79.1472 26.1068L77.2825 25.3837ZM77.4222 26.1447L76.8128 26.4963L77.8122 28.2286L78.4216 27.8771L77.4222 26.1447ZM78.3125 27.3625C78.3125 26.6614 78.3805 26.0155 78.5116 25.4219L76.5587 24.9905C76.393 25.7406 76.3125 26.5323 76.3125 27.3625H78.3125ZM78.5092 25.4327C78.644 24.8531 78.8441 24.3636 79.0994 23.9526L77.4006 22.8973C77.0153 23.5175 76.7388 24.2156 76.5611 24.9797L78.5092 25.4327ZM79.103 23.9469C79.3441 23.5529 79.6353 23.2681 79.9752 23.0685L78.9623 21.3439C78.3179 21.7224 77.7965 22.2502 77.397 22.903L79.103 23.9469ZM79.9793 23.0661C80.2987 22.8764 80.7092 22.7609 81.25 22.7609V20.7609C80.4158 20.7609 79.6388 20.9422 78.9582 21.3464L79.9793 23.0661ZM81.25 22.7609C81.3263 22.7609 81.4406 22.7708 81.6002 22.8015L81.9779 20.8375C81.7312 20.79 81.4862 20.7609 81.25 20.7609V22.7609ZM81.637 22.8079C81.7196 22.8206 81.7733 22.8317 81.8043 22.8394C81.8193 22.8432 81.8234 22.8448 81.8193 22.8434C81.8164 22.8424 81.7955 22.8353 81.7637 22.8194L82.6582 21.0305C82.4263 20.9146 82.1457 20.8626 81.9411 20.8311L81.637 22.8079ZM90.918 24.6789L90.0311 25.1408L90.0369 25.1519L90.0429 25.1629L90.918 24.6789ZM87.1094 23.7882L86.6969 22.8773L86.6903 22.8803L87.1094 23.7882ZM86.1484 24.5265L85.3558 23.9168L85.3508 23.9233L85.346 23.9298L86.1484 24.5265ZM85.8086 25.5109V26.5109H86.8086V25.5109H85.8086ZM83.6406 25.5109H82.6406V26.5109H83.6406V25.5109ZM85 22.9562L85.6347 23.7289L85.6362 23.7277L85 22.9562ZM86.5938 22.089L86.9172 23.0353L86.9241 23.0329L86.5938 22.089ZM91.1172 22.2296L90.711 23.1435L90.7148 23.1451L91.1172 22.2296ZM92.7812 23.6476L91.935 24.1804L91.9389 24.1865L91.9428 24.1926L92.7812 23.6476ZM93.4961 33.257L92.5068 33.4029L92.508 33.4109L92.5093 33.4188L93.4961 33.257ZM93.8359 34.4875H94.8359V34.2808L94.754 34.091L93.8359 34.4875ZM93.8359 34.675V35.675H94.8359V34.675H93.8359ZM91.5742 34.675L90.6581 35.0758L90.9202 35.675H91.5742V34.675ZM91.3164 33.6789L90.3272 33.8254L90.3276 33.8281L91.3164 33.6789ZM91.5977 26.9875L92.5975 26.9721L92.5824 25.9875H91.5977V26.9875ZM91.6211 28.5109V29.5109H92.6366L92.621 28.4955L91.6211 28.5109ZM87.7773 28.6632L87.9674 29.645L87.975 29.6435L87.9826 29.642L87.7773 28.6632ZM85.8086 29.8351L86.6682 30.3462L86.674 30.3361L85.8086 29.8351ZM86.6289 32.7296L86.1514 33.6083L86.1627 33.6144L86.1741 33.6203L86.6289 32.7296ZM90.9414 31.5578L90.1413 30.9577L90.134 30.9678L90.9414 31.5578ZM91.4336 30.3742L92.1815 29.7103L90.5826 27.9091L90.4355 30.3131L91.4336 30.3742ZM92.3594 31.4171L93.3458 31.5815L93.4243 31.1105L93.1072 30.7533L92.3594 31.4171ZM90.9414 33.6554L91.6112 34.398L91.6119 34.3973L90.9414 33.6554ZM89.5117 34.5578L89.9056 35.4769L89.9119 35.4742L89.5117 34.5578ZM85.3984 34.4054L84.934 35.2911L84.9384 35.2933L85.3984 34.4054ZM83.8984 33.0578L83.0472 33.5825L83.0514 33.5894L83.0557 33.5962L83.8984 33.0578ZM83.7695 29.3546L84.6585 29.8126L84.6613 29.8072L83.7695 29.3546ZM84.918 28.0539L85.4845 28.878L85.4931 28.8719L84.918 28.0539ZM92.2227 32.507V25.9796H90.2227V32.507H92.2227ZM92.2227 25.9796C92.2227 25.3427 92.0925 24.7362 91.793 24.1948L90.0429 25.1629C90.1497 25.3559 90.2227 25.6166 90.2227 25.9796H92.2227ZM91.8049 24.2169C91.5077 23.6464 91.054 23.2126 90.4815 22.9208L89.5732 24.7026C89.7976 24.817 89.9376 24.9613 90.0311 25.1408L91.8049 24.2169ZM90.4815 22.9208C89.9057 22.6272 89.2474 22.507 88.5508 22.507V24.507C89.026 24.507 89.3521 24.5899 89.5732 24.7026L90.4815 22.9208ZM88.5508 22.507C87.89 22.507 87.2641 22.6204 86.6969 22.8773L87.5219 24.6992C87.7828 24.5811 88.1178 24.507 88.5508 24.507V22.507ZM86.6903 22.8803C86.1614 23.1244 85.7038 23.4644 85.3558 23.9168L86.9411 25.1362C87.0618 24.9792 87.2449 24.8271 87.5284 24.6962L86.6903 22.8803ZM85.346 23.9298C85.002 24.3924 84.8086 24.9268 84.8086 25.5109H86.8086C86.8086 25.3918 86.8417 25.27 86.9509 25.1232L85.346 23.9298ZM85.8086 24.5109H83.6406V26.5109H85.8086V24.5109ZM84.6406 25.5109C84.6406 25.2374 84.7098 24.9468 84.8771 24.629L83.1073 23.6975C82.8058 24.2703 82.6406 24.8782 82.6406 25.5109H84.6406ZM84.8771 24.629C85.0421 24.3155 85.2874 24.0143 85.6347 23.7289L84.3653 22.1835C83.8376 22.6169 83.4111 23.1203 83.1073 23.6975L84.8771 24.629ZM85.6362 23.7277C85.9773 23.4464 86.3992 23.2123 86.9172 23.0353L86.2703 21.1428C85.5539 21.3876 84.9133 21.7316 84.3638 22.1847L85.6362 23.7277ZM86.9241 23.0329C87.4278 22.8566 88.0093 22.7609 88.6797 22.7609V20.7609C87.8188 20.7609 87.0097 20.8839 86.2634 21.1452L86.9241 23.0329ZM88.6797 22.7609C89.4889 22.7609 90.1585 22.8979 90.711 23.1435L91.5233 21.3158C90.6696 20.9364 89.7142 20.7609 88.6797 20.7609V22.7609ZM90.7148 23.1451C91.2503 23.3805 91.6473 23.7234 91.935 24.1804L93.6275 23.1148C93.1184 22.3062 92.4059 21.7038 91.5196 21.3142L90.7148 23.1451ZM91.9428 24.1926C92.2186 24.617 92.3906 25.1996 92.3906 26.0031H94.3906C94.3906 24.9159 94.1564 23.9283 93.6197 23.1026L91.9428 24.1926ZM92.3906 26.0031V31.9093H94.3906V26.0031H92.3906ZM92.3906 31.9093C92.3906 32.3863 92.4303 32.8847 92.5068 33.4029L94.4854 33.111C94.4212 32.6762 94.3906 32.2761 94.3906 31.9093H92.3906ZM92.5093 33.4188C92.597 33.9541 92.7292 34.447 92.9179 34.8839L94.754 34.091C94.6458 33.8404 94.5514 33.513 94.4829 33.0952L92.5093 33.4188ZM92.8359 34.4875V34.675H94.8359V34.4875H92.8359ZM93.8359 33.675H91.5742V35.675H93.8359V33.675ZM92.4904 34.2741C92.4296 34.1351 92.3608 33.8979 92.3052 33.5296L90.3276 33.8281C90.397 34.2879 90.5001 34.7148 90.6581 35.0758L92.4904 34.2741ZM92.3056 33.5323C92.249 33.1503 92.2227 32.8093 92.2227 32.507H90.2227C90.2227 32.9235 90.2588 33.3637 90.3272 33.8254L92.3056 33.5323ZM90.5978 27.0028L90.6212 28.5263L92.621 28.4955L92.5975 26.9721L90.5978 27.0028ZM91.6211 27.5109H89.4297V29.5109H91.6211V27.5109ZM89.4297 27.5109C88.7597 27.5109 88.1381 27.5658 87.5721 27.6845L87.9826 29.642C88.3853 29.5575 88.8653 29.5109 89.4297 29.5109V27.5109ZM87.5873 27.6815C87.021 27.7911 86.4987 27.9687 86.0471 28.2375L87.0701 29.9561C87.2747 29.8343 87.565 29.7229 87.9674 29.645L87.5873 27.6815ZM86.0471 28.2375C85.5893 28.51 85.2099 28.8734 84.9432 29.3341L86.674 30.3361C86.751 30.2031 86.8716 30.0742 87.0701 29.9561L86.0471 28.2375ZM84.9491 29.324C84.6713 29.7912 84.5508 30.3136 84.5508 30.8546H86.5508C86.5508 30.6145 86.6022 30.4571 86.6681 30.3462L84.9491 29.324ZM84.5508 30.8546C84.5508 31.4097 84.6776 31.9399 84.9432 32.4248L86.6974 31.4642C86.6036 31.2929 86.5508 31.0965 86.5508 30.8546H84.5508ZM84.9432 32.4248C85.2237 32.9369 85.6397 33.3302 86.1514 33.6083L87.1064 31.851C86.8993 31.7385 86.7763 31.6083 86.6974 31.4642L84.9432 32.4248ZM86.1741 33.6203C86.7168 33.8974 87.3314 34.0109 87.9766 34.0109V32.0109C87.5592 32.0109 87.2754 31.9369 87.0837 31.839L86.1741 33.6203ZM87.9766 34.0109C88.7854 34.0109 89.5426 33.8384 90.2189 33.4638L89.2499 31.7142C88.9105 31.9022 88.4958 32.0109 87.9766 32.0109V34.0109ZM90.2189 33.4638C90.8343 33.123 91.354 32.688 91.7488 32.1478L90.134 30.9678C89.935 31.24 89.6501 31.4926 89.2499 31.7142L90.2189 33.4638ZM91.7414 32.1578C92.1261 31.6449 92.393 31.0672 92.4317 30.4353L90.4355 30.3131C90.4273 30.4468 90.3661 30.6582 90.1414 30.9578L91.7414 32.1578ZM90.6857 31.038L91.6115 32.081L93.1072 30.7533L92.1815 29.7103L90.6857 31.038ZM91.373 31.2527C91.3458 31.4156 91.2602 31.6575 91.0595 31.9876L92.7686 33.0264C93.0523 32.5596 93.2635 32.0749 93.3458 31.5815L91.373 31.2527ZM91.0595 31.9876C90.8755 32.2904 90.6175 32.6002 90.2709 32.9136L91.6119 34.3973C92.0778 33.9762 92.4683 33.5204 92.7686 33.0264L91.0595 31.9876ZM90.2716 32.9129C89.9626 33.1916 89.5801 33.4368 89.1116 33.6413L89.9119 35.4742C90.5527 35.1944 91.1233 34.838 91.6112 34.398L90.2716 32.9129ZM89.1178 33.6386C88.7133 33.812 88.2331 33.9093 87.6602 33.9093V35.9093C88.4622 35.9093 89.2164 35.7723 89.9056 35.4769L89.1178 33.6386ZM87.6602 33.9093C86.9326 33.9093 86.3416 33.7678 85.8584 33.5175L84.9384 35.2933C85.7521 35.7149 86.6689 35.9093 87.6602 35.9093V33.9093ZM85.8628 33.5198C85.3631 33.2577 84.999 32.923 84.7411 32.5194L83.0557 33.5962C83.5166 34.3175 84.1525 34.8812 84.934 35.291L85.8628 33.5198ZM84.7497 32.533C84.5003 32.1284 84.3711 31.675 84.3711 31.1476H82.3711C82.3711 32.0265 82.5935 32.8465 83.0472 33.5825L84.7497 32.533ZM84.3711 31.1476C84.3711 30.5999 84.4774 30.1641 84.6585 29.8126L82.8806 28.8967C82.5304 29.5764 82.3711 30.336 82.3711 31.1476H84.3711ZM84.6613 29.8072C84.8486 29.4379 85.1174 29.1303 85.4845 28.8779L84.3514 27.2298C83.7185 27.665 83.2217 28.2245 82.8778 28.9021L84.6613 29.8072ZM85.4931 28.8719C85.8773 28.6018 86.3631 28.381 86.9703 28.2259L86.4751 26.2881C85.676 26.4923 84.9586 26.8028 84.3428 27.2358L85.4931 28.8719ZM86.9703 28.2259C87.5786 28.0704 88.2788 27.9875 89.0781 27.9875V25.9875C88.1431 25.9875 87.273 26.0842 86.4751 26.2881L86.9703 28.2259ZM89.0781 27.9875H91.5977V25.9875H89.0781V27.9875ZM104.383 31.9445L105.177 32.5526L105.183 32.5445L104.383 31.9445ZM104.863 30.6671V29.6671H103.942L103.867 30.5855L104.863 30.6671ZM106.926 30.6671L107.924 30.7192L107.979 29.6671H106.926V30.6671ZM106.164 32.7648L105.354 32.179L105.352 32.1808L106.164 32.7648ZM104.348 34.3234L104.81 35.2103L104.817 35.2065L104.348 34.3234ZM99.3789 34.4054L98.9478 35.3077L98.9517 35.3096L99.3789 34.4054ZM97.6211 33.0226L96.8351 33.6409L96.8402 33.6473L97.6211 33.0226ZM96.5781 31.007L95.6192 31.2908L95.6228 31.3025L96.5781 31.007ZM96.5781 25.675L95.6219 25.3822L95.62 25.3885L96.5781 25.675ZM97.6211 23.6476L96.8402 23.0229L96.8351 23.0293L97.6211 23.6476ZM99.3789 22.2648L98.9517 21.3607L98.9478 21.3625L99.3789 22.2648ZM104.477 22.3703L103.996 23.2475L104.004 23.2513L104.477 22.3703ZM106.223 24.0109L105.368 24.5297L105.375 24.5409L106.223 24.0109ZM106.926 26.3546V27.3546H107.971L107.925 26.31L106.926 26.3546ZM104.863 26.3546L103.866 26.4291L103.935 27.3546H104.863V26.3546ZM104.418 24.9367L103.558 25.4465L103.565 25.4581L104.418 24.9367ZM103.387 23.9289L102.872 24.7864L102.881 24.7918L102.891 24.7971L103.387 23.9289ZM100.199 23.9406L100.7 24.806L100.705 24.8033L100.199 23.9406ZM99.1328 24.9953L98.274 24.483L98.2713 24.4876L99.1328 24.9953ZM98.5703 26.4601L97.5931 26.2477L97.5909 26.2585L98.5703 26.4601ZM99.1211 31.6867L98.2595 32.1944L98.2663 32.2057L99.1211 31.6867ZM100.188 32.7414L99.6752 33.6002L99.684 33.6054L99.693 33.6105L100.188 32.7414ZM101.875 34.1281C102.532 34.1281 103.158 33.9927 103.739 33.7124L102.87 31.9109C102.577 32.0525 102.25 32.1281 101.875 32.1281V34.1281ZM103.739 33.7124C104.31 33.437 104.795 33.0504 105.177 32.5526L103.589 31.3364C103.408 31.573 103.174 31.7645 102.87 31.9109L103.739 33.7124ZM105.183 32.5445C105.58 32.0155 105.806 31.4093 105.86 30.7488L103.867 30.5855C103.843 30.8781 103.749 31.1234 103.583 31.3445L105.183 32.5445ZM104.863 31.6671H106.926V29.6671H104.863V31.6671ZM105.927 30.6151C105.899 31.16 105.717 31.6759 105.354 32.179L106.974 33.3506C107.548 32.5568 107.875 31.6743 107.924 30.7192L105.927 30.6151ZM105.352 32.1808C104.988 32.6874 104.503 33.1083 103.879 33.4403L104.817 35.2065C105.692 34.7416 106.418 34.1235 106.976 33.3488L105.352 32.1808ZM103.886 33.4365C103.287 33.7482 102.623 33.9093 101.875 33.9093V35.9093C102.924 35.9093 103.908 35.6799 104.81 35.2103L103.886 33.4365ZM101.875 33.9093C101.039 33.9093 100.358 33.7621 99.8061 33.5013L98.9517 35.3096C99.8215 35.7206 100.805 35.9093 101.875 35.9093V33.9093ZM99.81 33.5031C99.2375 33.2296 98.7729 32.8616 98.402 32.3979L96.8402 33.6473C97.4068 34.3555 98.114 34.9094 98.9478 35.3077L99.81 33.5031ZM98.407 32.4043C98.0266 31.9207 97.734 31.3598 97.5335 30.7115L95.6228 31.3025C95.891 32.1698 96.2937 32.9526 96.8351 33.6409L98.407 32.4043ZM97.537 30.7232C97.3395 30.0557 97.2383 29.3431 97.2383 28.5812H95.2383C95.2383 29.5225 95.3637 30.4271 95.6192 31.2907L97.537 30.7232ZM97.2383 28.5812V28.089H95.2383V28.5812H97.2383ZM97.2383 28.089C97.2383 27.3271 97.3395 26.6194 97.5362 25.9614L95.62 25.3885C95.3636 26.2461 95.2383 27.1479 95.2383 28.089H97.2383ZM97.5343 25.9677C97.7352 25.3113 98.028 24.7478 98.407 24.2659L96.8351 23.0293C96.2923 23.7193 95.8898 24.5073 95.6219 25.3822L97.5343 25.9677ZM98.402 24.2723C98.7729 23.8087 99.2375 23.4406 99.81 23.1671L98.9478 21.3625C98.114 21.7608 97.4068 22.3147 96.8402 23.0229L98.402 24.2723ZM99.8061 23.1689C100.358 22.9081 101.039 22.7609 101.875 22.7609V20.7609C100.805 20.7609 99.8215 20.9496 98.9517 21.3607L99.8061 23.1689ZM101.875 22.7609C102.728 22.7609 103.425 22.9347 103.996 23.2475L104.957 21.4931C104.044 20.9934 103.006 20.7609 101.875 20.7609V22.7609ZM104.004 23.2513C104.594 23.5684 105.042 23.9927 105.368 24.5296L107.078 23.4922C106.56 22.6385 105.843 21.969 104.95 21.4892L104.004 23.2513ZM105.375 24.5409C105.706 25.0707 105.895 25.6821 105.927 26.3992L107.925 26.31C107.879 25.2772 107.599 24.3261 107.071 23.4809L105.375 24.5409ZM106.926 25.3546H104.863V27.3546H106.926V25.3546ZM105.861 26.2802C105.81 25.6085 105.617 24.9809 105.271 24.4152L103.565 25.4581C103.735 25.7362 103.838 26.0539 103.866 26.4291L105.861 26.2802ZM105.278 24.4269C104.937 23.8518 104.466 23.3941 103.883 23.0606L102.891 24.7971C103.182 24.9636 103.398 25.1778 103.558 25.4465L105.278 24.4269ZM103.901 23.0714C103.293 22.7067 102.606 22.5421 101.875 22.5421V24.5421C102.3 24.5421 102.621 24.6354 102.872 24.7864L103.901 23.0714ZM101.875 22.5421C101.079 22.5421 100.336 22.7015 99.6935 23.0779L100.705 24.8033C100.969 24.6484 101.342 24.5421 101.875 24.5421V22.5421ZM99.6982 23.0752C99.1043 23.419 98.6262 23.8926 98.274 24.483L99.9916 25.5075C100.171 25.2073 100.404 24.9778 100.7 24.806L99.6982 23.0752ZM98.2713 24.4876C97.955 25.0243 97.731 25.6136 97.5931 26.2477L99.5475 26.6725C99.644 26.2285 99.795 25.8412 99.9944 25.503L98.2713 24.4876ZM97.5909 26.2585C97.4675 26.8575 97.4062 27.4681 97.4062 28.089H99.4062C99.4062 27.6005 99.4544 27.1252 99.5498 26.6618L97.5909 26.2585ZM97.4062 28.089V28.5812H99.4062V28.089H97.4062ZM97.4062 28.5812C97.4062 29.2021 97.4675 29.8156 97.5903 30.4207L99.5503 30.023C99.4544 29.5499 99.4062 29.0697 99.4062 28.5812H97.4062ZM97.5903 30.4207C97.7199 31.0595 97.9409 31.6536 98.2596 32.1944L99.9826 31.179C99.7857 30.8448 99.6395 30.4623 99.5503 30.023L97.5903 30.4207ZM98.2663 32.2057C98.6178 32.7846 99.0916 33.2521 99.6752 33.6002L100.7 31.8825C100.393 31.6994 100.156 31.4638 99.9759 31.1677L98.2663 32.2057ZM99.693 33.6105C100.334 33.9754 101.079 34.1281 101.875 34.1281V32.1281C101.328 32.1281 100.947 32.0229 100.682 31.8722L99.693 33.6105ZM111.543 16.675H112.543V15.675H111.543V16.675ZM111.543 34.675V35.675H112.543V34.675H111.543ZM109.363 34.675H108.363V35.675H109.363V34.675ZM109.363 16.675V15.675H108.363V16.675H109.363ZM119.289 21.9953L120.02 22.6781L121.593 20.9953H119.289V21.9953ZM113.758 27.9132L114.478 28.6071L114.483 28.6016L114.488 28.5961L113.758 27.9132ZM110.664 31.1242L109.667 31.2001L109.836 33.4245L111.384 31.818L110.664 31.1242ZM110.488 28.8156L109.721 28.1741L109.46 28.486L109.491 28.8915L110.488 28.8156ZM112.703 26.1671L111.976 25.4808L111.955 25.5026L111.936 25.5256L112.703 26.1671ZM116.641 21.9953V20.9953H116.209L115.913 21.3089L116.641 21.9953ZM117.309 34.675L116.508 35.274L116.808 35.675H117.309V34.675ZM112.785 28.6281L111.921 28.1252L111.588 28.6972L111.984 29.2271L112.785 28.6281ZM113.91 26.6945L114.712 26.0966L113.807 24.8836L113.046 26.1916L113.91 26.6945ZM119.863 34.675V35.675H121.857L120.665 34.077L119.863 34.675ZM110.543 16.675V34.675H112.543V16.675H110.543ZM111.543 33.675H109.363V35.675H111.543V33.675ZM110.363 34.675V16.675H108.363V34.675H110.363ZM109.363 17.675H111.543V15.675H109.363V17.675ZM118.558 21.3124L113.027 27.2304L114.488 28.5961L120.02 22.6781L118.558 21.3124ZM113.038 27.2194L109.944 30.4303L111.384 31.818L114.478 28.6071L113.038 27.2194ZM111.661 31.0483L111.485 28.7397L109.491 28.8915L109.667 31.2001L111.661 31.0483ZM111.255 29.4571L113.47 26.8087L111.936 25.5256L109.721 28.1741L111.255 29.4571ZM113.43 26.8535L117.368 22.6817L115.913 21.3089L111.976 25.4808L113.43 26.8535ZM116.641 22.9953H119.289V20.9953H116.641V22.9953ZM118.109 34.076L113.586 28.0291L111.984 29.2271L116.508 35.274L118.109 34.076ZM113.65 29.131L114.775 27.1974L113.046 26.1916L111.921 28.1252L113.65 29.131ZM113.109 27.2924L119.062 35.2729L120.665 34.077L114.712 26.0966L113.109 27.2924ZM119.863 33.675H117.309V35.675H119.863V33.675ZM122.57 17.6125V16.6125H121.086L121.644 17.988L122.57 17.6125ZM124.762 17.6125L125.69 17.2396L125.438 16.6125H124.762V17.6125ZM130.352 31.5226L129.424 31.8955L130.353 34.2069L131.28 31.8948L130.352 31.5226ZM135.93 17.6125V16.6125H135.253L135.002 17.2403L135.93 17.6125ZM138.133 17.6125L139.059 17.9891L139.619 16.6125H138.133V17.6125ZM131.195 34.675V35.675H131.868L132.122 35.0516L131.195 34.675ZM129.484 34.675L128.558 35.0505L128.811 35.675H129.484V34.675ZM121.855 17.6125V16.6125H120.855V17.6125H121.855ZM123.789 17.6125L124.789 17.5821L124.759 16.6125H123.789V17.6125ZM124.105 28.0187H125.105V28.0035L125.105 27.9883L124.105 28.0187ZM124.105 34.675V35.675H125.105V34.675H124.105ZM121.855 34.675H120.855V35.675H121.855V34.675ZM136.902 17.6125V16.6125H135.932L135.903 17.5821L136.902 17.6125ZM138.836 17.6125H139.836V16.6125H138.836V17.6125ZM138.836 34.675V35.675H139.836V34.675H138.836ZM136.586 34.675H135.586V35.675H136.586V34.675ZM136.586 28.0187L135.586 27.9883L135.586 28.0035V28.0187H136.586ZM122.57 18.6125H124.762V16.6125H122.57V18.6125ZM123.834 17.9853L129.424 31.8955L131.279 31.1497L125.69 17.2396L123.834 17.9853ZM131.28 31.8948L136.858 17.9847L135.002 17.2403L129.423 31.1504L131.28 31.8948ZM135.93 18.6125H138.133V16.6125H135.93V18.6125ZM137.206 17.2358L130.269 34.2983L132.122 35.0516L139.059 17.9891L137.206 17.2358ZM131.195 33.675H129.484V35.675H131.195V33.675ZM130.411 34.2994L123.497 17.2369L121.644 17.988L128.558 35.0505L130.411 34.2994ZM121.855 18.6125H123.789V16.6125H121.855V18.6125ZM122.79 17.6428L123.106 28.0491L125.105 27.9883L124.789 17.5821L122.79 17.6428ZM123.105 28.0187V34.675H125.105V28.0187H123.105ZM124.105 33.675H121.855V35.675H124.105V33.675ZM122.855 34.675V17.6125H120.855V34.675H122.855ZM136.902 18.6125H138.836V16.6125H136.902V18.6125ZM137.836 17.6125V34.675H139.836V17.6125H137.836ZM138.836 33.675H136.586V35.675H138.836V33.675ZM137.586 34.675V28.0187H135.586V34.675H137.586ZM137.585 28.0491L137.902 17.6428L135.903 17.5821L135.586 27.9883L137.585 28.0491ZM149.652 24.6789L148.765 25.1408L148.771 25.1519L148.777 25.1629L149.652 24.6789ZM145.844 23.7882L145.431 22.8773L145.425 22.8803L145.844 23.7882ZM144.883 24.5265L144.09 23.9168L144.085 23.9233L144.08 23.9298L144.883 24.5265ZM144.543 25.5109V26.5109H145.543V25.5109H144.543ZM142.375 25.5109H141.375V26.5109H142.375V25.5109ZM143.734 22.9562L144.369 23.7289L144.371 23.7277L143.734 22.9562ZM145.328 22.089L145.652 23.0353L145.658 23.0329L145.328 22.089ZM149.852 22.2296L149.445 23.1435L149.449 23.1451L149.852 22.2296ZM151.516 23.6476L150.669 24.1804L150.673 24.1865L150.677 24.1926L151.516 23.6476ZM152.23 33.257L151.241 33.4029L151.242 33.4109L151.244 33.4188L152.23 33.257ZM152.57 34.4875H153.57V34.2808L153.488 34.091L152.57 34.4875ZM152.57 34.675V35.675H153.57V34.675H152.57ZM150.309 34.675L149.392 35.0758L149.655 35.675H150.309V34.675ZM150.051 33.6789L149.062 33.8254L149.062 33.8281L150.051 33.6789ZM150.332 26.9875L151.332 26.9721L151.317 25.9875H150.332V26.9875ZM150.355 28.5109V29.5109H151.371L151.355 28.4955L150.355 28.5109ZM146.512 28.6632L146.702 29.645L146.709 29.6435L146.717 29.642L146.512 28.6632ZM144.543 29.8351L145.403 30.3462L145.408 30.3361L144.543 29.8351ZM145.363 32.7296L144.886 33.6083L144.897 33.6144L144.909 33.6203L145.363 32.7296ZM149.676 31.5578L148.876 30.9577L148.868 30.9678L149.676 31.5578ZM150.168 30.3742L150.916 29.7103L149.317 27.9091L149.17 30.3131L150.168 30.3742ZM151.094 31.4171L152.08 31.5815L152.159 31.1105L151.842 30.7533L151.094 31.4171ZM149.676 33.6554L150.346 34.398L150.346 34.3973L149.676 33.6554ZM148.246 34.5578L148.64 35.4769L148.646 35.4742L148.246 34.5578ZM144.133 34.4054L143.668 35.2911L143.673 35.2933L144.133 34.4054ZM142.633 33.0578L141.782 33.5825L141.786 33.5894L141.79 33.5962L142.633 33.0578ZM142.504 29.3546L143.393 29.8126L143.396 29.8072L142.504 29.3546ZM143.652 28.0539L144.219 28.878L144.228 28.8719L143.652 28.0539ZM150.957 32.507V25.9796H148.957V32.507H150.957ZM150.957 25.9796C150.957 25.3427 150.827 24.7362 150.527 24.1948L148.777 25.1629C148.884 25.3559 148.957 25.6166 148.957 25.9796H150.957ZM150.539 24.2169C150.242 23.6464 149.788 23.2126 149.216 22.9208L148.308 24.7026C148.532 24.817 148.672 24.9613 148.765 25.1408L150.539 24.2169ZM149.216 22.9208C148.64 22.6272 147.982 22.507 147.285 22.507V24.507C147.76 24.507 148.086 24.5899 148.308 24.7026L149.216 22.9208ZM147.285 22.507C146.624 22.507 145.998 22.6204 145.431 22.8773L146.256 24.6992C146.517 24.5811 146.852 24.507 147.285 24.507V22.507ZM145.425 22.8803C144.896 23.1244 144.438 23.4644 144.09 23.9168L145.675 25.1362C145.796 24.9792 145.979 24.8271 146.263 24.6962L145.425 22.8803ZM144.08 23.9298C143.736 24.3924 143.543 24.9268 143.543 25.5109H145.543C145.543 25.3918 145.576 25.27 145.685 25.1232L144.08 23.9298ZM144.543 24.5109H142.375V26.5109H144.543V24.5109ZM143.375 25.5109C143.375 25.2374 143.444 24.9468 143.611 24.629L141.842 23.6975C141.54 24.2703 141.375 24.8782 141.375 25.5109H143.375ZM143.611 24.629C143.776 24.3155 144.022 24.0143 144.369 23.7289L143.1 22.1835C142.572 22.6169 142.145 23.1203 141.842 23.6975L143.611 24.629ZM144.371 23.7277C144.712 23.4464 145.134 23.2123 145.652 23.0353L145.005 21.1428C144.288 21.3876 143.648 21.7316 143.098 22.1847L144.371 23.7277ZM145.658 23.0329C146.162 22.8566 146.744 22.7609 147.414 22.7609V20.7609C146.553 20.7609 145.744 20.8839 144.998 21.1452L145.658 23.0329ZM147.414 22.7609C148.223 22.7609 148.893 22.8979 149.445 23.1435L150.258 21.3158C149.404 20.9364 148.449 20.7609 147.414 20.7609V22.7609ZM149.449 23.1451C149.985 23.3805 150.382 23.7234 150.669 24.1804L152.362 23.1148C151.853 22.3062 151.14 21.7038 150.254 21.3142L149.449 23.1451ZM150.677 24.1926C150.953 24.617 151.125 25.1996 151.125 26.0031H153.125C153.125 24.9159 152.891 23.9283 152.354 23.1026L150.677 24.1926ZM151.125 26.0031V31.9093H153.125V26.0031H151.125ZM151.125 31.9093C151.125 32.3863 151.165 32.8847 151.241 33.4029L153.22 33.111C153.156 32.6762 153.125 32.2761 153.125 31.9093H151.125ZM151.244 33.4188C151.331 33.9541 151.464 34.447 151.652 34.8839L153.488 34.091C153.38 33.8404 153.286 33.513 153.217 33.0952L151.244 33.4188ZM151.57 34.4875V34.675H153.57V34.4875H151.57ZM152.57 33.675H150.309V35.675H152.57V33.675ZM151.225 34.2741C151.164 34.1351 151.095 33.8979 151.04 33.5296L149.062 33.8281C149.131 34.2879 149.234 34.7148 149.392 35.0758L151.225 34.2741ZM151.04 33.5323C150.983 33.1503 150.957 32.8093 150.957 32.507H148.957C148.957 32.9235 148.993 33.3637 149.062 33.8254L151.04 33.5323ZM149.332 27.0028L149.356 28.5263L151.355 28.4955L151.332 26.9721L149.332 27.0028ZM150.355 27.5109H148.164V29.5109H150.355V27.5109ZM148.164 27.5109C147.494 27.5109 146.873 27.5658 146.307 27.6845L146.717 29.642C147.12 29.5575 147.6 29.5109 148.164 29.5109V27.5109ZM146.322 27.6815C145.755 27.7911 145.233 27.9687 144.781 28.2375L145.804 29.9561C146.009 29.8343 146.299 29.7229 146.702 29.645L146.322 27.6815ZM144.781 28.2375C144.324 28.51 143.944 28.8734 143.678 29.3341L145.408 30.3361C145.485 30.2031 145.606 30.0742 145.804 29.9561L144.781 28.2375ZM143.683 29.324C143.406 29.7912 143.285 30.3136 143.285 30.8546H145.285C145.285 30.6145 145.337 30.4571 145.403 30.3462L143.683 29.324ZM143.285 30.8546C143.285 31.4097 143.412 31.9399 143.678 32.4248L145.432 31.4642C145.338 31.2929 145.285 31.0965 145.285 30.8546H143.285ZM143.678 32.4248C143.958 32.9369 144.374 33.3302 144.886 33.6083L145.841 31.851C145.634 31.7385 145.511 31.6083 145.432 31.4642L143.678 32.4248ZM144.909 33.6203C145.451 33.8974 146.066 34.0109 146.711 34.0109V32.0109C146.294 32.0109 146.01 31.9369 145.818 31.839L144.909 33.6203ZM146.711 34.0109C147.52 34.0109 148.277 33.8384 148.953 33.4638L147.984 31.7142C147.645 31.9022 147.23 32.0109 146.711 32.0109V34.0109ZM148.953 33.4638C149.569 33.123 150.088 32.688 150.483 32.1478L148.868 30.9678C148.669 31.24 148.384 31.4926 147.984 31.7142L148.953 33.4638ZM150.476 32.1578C150.86 31.6449 151.127 31.0672 151.166 30.4353L149.17 30.3131C149.162 30.4468 149.1 30.6582 148.876 30.9578L150.476 32.1578ZM149.42 31.038L150.346 32.081L151.842 30.7533L150.916 29.7103L149.42 31.038ZM150.107 31.2527C150.08 31.4156 149.995 31.6575 149.794 31.9876L151.503 33.0264C151.787 32.5596 151.998 32.0749 152.08 31.5815L150.107 31.2527ZM149.794 31.9876C149.61 32.2904 149.352 32.6002 149.005 32.9136L150.346 34.3973C150.812 33.9762 151.203 33.5204 151.503 33.0264L149.794 31.9876ZM149.006 32.9129C148.697 33.1916 148.314 33.4368 147.846 33.6413L148.646 35.4742C149.287 35.1944 149.858 34.838 150.346 34.398L149.006 32.9129ZM147.852 33.6386C147.448 33.812 146.967 33.9093 146.395 33.9093V35.9093C147.197 35.9093 147.951 35.7723 148.64 35.4769L147.852 33.6386ZM146.395 33.9093C145.667 33.9093 145.076 33.7678 144.593 33.5175L143.673 35.2933C144.487 35.7149 145.403 35.9093 146.395 35.9093V33.9093ZM144.597 33.5198C144.097 33.2577 143.733 32.923 143.476 32.5194L141.79 33.5962C142.251 34.3175 142.887 34.8812 143.668 35.291L144.597 33.5198ZM143.484 32.533C143.235 32.1284 143.105 31.675 143.105 31.1476H141.105C141.105 32.0265 141.328 32.8465 141.782 33.5825L143.484 32.533ZM143.105 31.1476C143.105 30.5999 143.212 30.1641 143.393 29.8126L141.615 28.8967C141.265 29.5764 141.105 30.336 141.105 31.1476H143.105ZM143.396 29.8072C143.583 29.4379 143.852 29.1303 144.219 28.8779L143.086 27.2298C142.453 27.665 141.956 28.2245 141.612 28.9021L143.396 29.8072ZM144.228 28.8719C144.612 28.6018 145.097 28.381 145.705 28.2259L145.209 26.2881C144.41 26.4923 143.693 26.8028 143.077 27.2358L144.228 28.8719ZM145.705 28.2259C146.313 28.0704 147.013 27.9875 147.812 27.9875V25.9875C146.877 25.9875 146.007 26.0842 145.209 26.2881L145.705 28.2259ZM147.812 27.9875H150.332V25.9875H147.812V27.9875ZM160.844 21.9953H161.844V20.9953H160.844V21.9953ZM160.844 23.6593V24.6593H161.844V23.6593H160.844ZM153.988 23.6593H152.988V24.6593H153.988V23.6593ZM153.988 21.9953V20.9953H152.988V21.9953H153.988ZM156.309 18.9132V17.9132H155.309V18.9132H156.309ZM158.477 18.9132H159.477V17.9132H158.477V18.9132ZM160.434 32.9992L160.592 33.9866L160.607 33.9841L160.622 33.9812L160.434 32.9992ZM160.891 32.9054L161.891 32.8988L161.882 31.6503L160.666 31.931L160.891 32.9054ZM160.902 34.675L161.206 35.6279L161.907 35.4046L161.902 34.6683L160.902 34.675ZM160.223 34.8273L160.058 33.8409L160.042 33.8436L160.027 33.8467L160.223 34.8273ZM156.695 33.5382L155.807 33.9965L155.811 34.0049L155.815 34.0132L156.695 33.5382ZM159.844 21.9953V23.6593H161.844V21.9953H159.844ZM160.844 22.6593H153.988V24.6593H160.844V22.6593ZM154.988 23.6593V21.9953H152.988V23.6593H154.988ZM153.988 22.9953H160.844V20.9953H153.988V22.9953ZM156.309 19.9132H158.477V17.9132H156.309V19.9132ZM157.477 18.9132V31.5343H159.477V18.9132H157.477ZM157.477 31.5343C157.477 32.0367 157.549 32.5776 157.821 33.026L159.531 31.988C159.538 32.0008 159.523 31.98 159.506 31.8991C159.49 31.8192 159.477 31.7006 159.477 31.5343H157.477ZM157.821 33.026C158.057 33.4149 158.406 33.7329 158.875 33.8893L159.508 31.9919C159.514 31.9941 159.522 31.9974 159.53 32.0019C159.538 32.0064 159.544 32.0108 159.548 32.0141C159.556 32.0209 159.548 32.0171 159.531 31.988L157.821 33.026ZM158.875 33.8893C159.197 33.9965 159.531 34.0461 159.871 34.0461V32.0461C159.727 32.0461 159.608 32.0253 159.508 31.9919L158.875 33.8893ZM159.871 34.0461C160.109 34.0461 160.349 34.0254 160.592 33.9866L160.276 32.0117C160.127 32.0355 159.993 32.0461 159.871 32.0461V34.0461ZM160.622 33.9812C160.828 33.9416 160.995 33.9075 161.115 33.8798L160.666 31.931C160.583 31.9502 160.445 31.9786 160.245 32.0172L160.622 33.9812ZM159.891 32.912L159.902 34.6816L161.902 34.6683L161.891 32.8988L159.891 32.912ZM160.599 33.722C160.491 33.7565 160.316 33.7979 160.058 33.8409L160.387 35.8137C160.692 35.7629 160.97 35.7028 161.206 35.6279L160.599 33.722ZM160.027 33.8467C159.838 33.8845 159.575 33.9093 159.227 33.9093V35.9093C159.659 35.9093 160.061 35.8795 160.419 35.8079L160.027 33.8467ZM159.227 33.9093C158.832 33.9093 158.491 33.8319 158.19 33.6892L157.334 35.4967C157.923 35.7758 158.559 35.9093 159.227 35.9093V33.9093ZM158.19 33.6892C157.962 33.5815 157.754 33.3945 157.575 33.0633L155.815 34.0132C156.168 34.6664 156.67 35.1825 157.334 35.4967L158.19 33.6892ZM157.584 33.0799C157.427 32.7749 157.309 32.28 157.309 31.5226H155.309C155.309 32.4527 155.448 33.3016 155.807 33.9965L157.584 33.0799ZM157.309 31.5226V18.9132H155.309V31.5226H157.309ZM166.246 34.464L165.852 35.3832L165.864 35.3883L166.246 34.464ZM164.406 33.1867L163.673 33.8671L163.679 33.8727L164.406 33.1867ZM163.281 25.5343L164.216 25.8884L164.218 25.8855L163.281 25.5343ZM170.711 22.2296L170.281 23.1325L170.285 23.1345L170.711 22.2296ZM172.34 23.5421L171.54 24.1422L171.544 24.1475L172.34 23.5421ZM173.277 25.5109L172.311 25.7698L172.312 25.7723L173.277 25.5109ZM173.582 28.9445V29.9445H174.582V28.9445H173.582ZM164.113 28.9445H163.113V29.9445H164.113V28.9445ZM164.113 27.175V26.175H163.113V27.175H164.113ZM171.414 27.175V28.175H172.414V27.175H171.414ZM171.414 27.0109H172.414V26.9831L172.413 26.9554L171.414 27.0109ZM171.062 25.3703L170.124 25.7154L170.128 25.7274L171.062 25.3703ZM167.008 23.8586L167.448 24.7563L167.455 24.753L167.462 24.7496L167.008 23.8586ZM165.25 30.4796L164.295 30.7747L164.297 30.7832L164.3 30.7916L165.25 30.4796ZM165.988 31.8625L165.209 32.4891L165.216 32.4982L165.988 31.8625ZM167.172 32.8L166.731 33.6974L166.737 33.7003L167.172 32.8ZM172.105 31.4171L172.728 30.6342L171.928 29.999L171.31 30.8115L172.105 31.4171ZM173.418 32.4601L174.252 33.0112L174.757 32.247L174.04 31.6772L173.418 32.4601ZM170.816 34.5578L170.461 33.6229L170.457 33.6244L170.816 34.5578ZM168.648 33.9093C167.879 33.9093 167.21 33.7803 166.628 33.5398L165.864 35.3883C166.719 35.7415 167.652 35.9093 168.648 35.9093V33.9093ZM166.64 33.5449C166.051 33.2926 165.553 32.9448 165.134 32.5007L163.679 33.8727C164.291 34.5223 165.019 35.0261 165.852 35.3832L166.64 33.5449ZM165.139 32.5062C164.728 32.0637 164.405 31.5324 164.174 30.8988L162.295 31.5839C162.611 32.4503 163.069 33.2159 163.673 33.8671L165.139 32.5062ZM164.174 30.8988C163.945 30.2705 163.824 29.5676 163.824 28.7804H161.824C161.824 29.7745 161.977 30.7122 162.295 31.5839L164.174 30.8988ZM163.824 28.7804V28.2882H161.824V28.7804H163.824ZM163.824 28.2882C163.824 27.3546 163.962 26.56 164.216 25.8884L162.346 25.1802C161.991 26.1181 161.824 27.1594 161.824 28.2882H163.824ZM164.218 25.8855C164.482 25.1795 164.832 24.6083 165.256 24.1531L163.791 22.7906C163.168 23.4603 162.69 24.2641 162.345 25.1832L164.218 25.8855ZM165.256 24.1531C165.691 23.6849 166.173 23.3423 166.704 23.1114L165.906 21.2776C165.108 21.6248 164.403 22.1337 163.791 22.7906L165.256 24.1531ZM166.704 23.1114C167.244 22.8761 167.796 22.7609 168.367 22.7609V20.7609C167.516 20.7609 166.693 20.9348 165.906 21.2776L166.704 23.1114ZM168.367 22.7609C169.16 22.7609 169.788 22.8977 170.281 23.1325L171.141 21.3268C170.321 20.9365 169.386 20.7609 168.367 20.7609V22.7609ZM170.285 23.1345C170.808 23.3806 171.22 23.7161 171.54 24.1421L173.14 22.9421C172.616 22.2432 171.942 21.7037 171.137 21.3248L170.285 23.1345ZM171.544 24.1475C171.878 24.5866 172.138 25.1217 172.311 25.7698L174.243 25.252C174.011 24.3845 173.646 23.607 173.136 22.9368L171.544 24.1475ZM172.312 25.7723C172.489 26.4257 172.582 27.1569 172.582 27.9718H174.582C174.582 27.0055 174.472 26.0961 174.243 25.2495L172.312 25.7723ZM172.582 27.9718V28.9445H174.582V27.9718H172.582ZM173.582 27.9445H164.113V29.9445H173.582V27.9445ZM165.113 28.9445V27.175H163.113V28.9445H165.113ZM164.113 28.175H171.414V26.175H164.113V28.175ZM172.414 27.175V27.0109H170.414V27.175H172.414ZM172.413 26.9554C172.375 26.2886 172.236 25.6401 171.997 25.0131L170.128 25.7274C170.295 26.163 170.39 26.6081 170.416 27.0664L172.413 26.9554ZM172.001 25.0252C171.745 24.3279 171.326 23.738 170.75 23.2769L169.5 24.8386C169.783 25.0651 169.99 25.3501 170.124 25.7153L172.001 25.0252ZM170.75 23.2769C170.09 22.7488 169.257 22.5421 168.367 22.5421V24.5421C168.961 24.5421 169.301 24.6792 169.5 24.8386L170.75 23.2769ZM168.367 22.5421C167.727 22.5421 167.117 22.6807 166.554 22.9675L167.462 24.7496C167.727 24.6145 168.023 24.5421 168.367 24.5421V22.5421ZM166.567 22.9608C165.995 23.2416 165.518 23.6577 165.134 24.1826L166.749 25.3626C166.959 25.075 167.193 24.8818 167.448 24.7563L166.567 22.9608ZM165.134 24.1826C164.753 24.7033 164.477 25.3135 164.287 25.9913L166.213 26.5305C166.351 26.0364 166.536 25.6544 166.749 25.3626L165.134 24.1826ZM164.287 25.9913C164.093 26.6842 164.004 27.4538 164.004 28.2882H166.004C166.004 27.5914 166.079 27.0095 166.213 26.5305L164.287 25.9913ZM164.004 28.2882V28.7804H166.004V28.2882H164.004ZM164.004 28.7804C164.004 29.4739 164.099 30.1404 164.295 30.7747L166.205 30.1846C166.073 29.7564 166.004 29.2901 166.004 28.7804H164.004ZM164.3 30.7916C164.506 31.4204 164.808 31.9898 165.209 32.489L166.768 31.2359C166.528 30.9383 166.337 30.5858 166.2 30.1677L164.3 30.7916ZM165.216 32.4982C165.634 33.0058 166.142 33.4078 166.731 33.6974L167.613 31.9025C167.28 31.739 166.998 31.516 166.76 31.2268L165.216 32.4982ZM166.737 33.7003C167.359 34.0011 168.042 34.1398 168.766 34.1398V32.1398C168.301 32.1398 167.922 32.0519 167.607 31.8996L166.737 33.7003ZM168.766 34.1398C169.667 34.1398 170.5 33.9554 171.218 33.533L170.204 31.8091C169.859 32.0117 169.396 32.1398 168.766 32.1398V34.1398ZM171.218 33.533C171.869 33.1503 172.429 32.6426 172.901 32.0228L171.31 30.8115C170.985 31.2386 170.616 31.5668 170.204 31.8091L171.218 33.533ZM171.483 32.2001L172.796 33.243L174.04 31.6772L172.728 30.6342L171.483 32.2001ZM172.584 31.9091C172.364 32.2414 172.076 32.5713 171.711 32.8963L173.039 34.3911C173.517 33.9661 173.925 33.507 174.252 33.0112L172.584 31.9091ZM171.711 32.8963C171.394 33.1781 170.984 33.4245 170.461 33.6229L171.171 35.4926C171.883 35.2223 172.513 34.8593 173.039 34.3911L171.711 32.8963ZM170.457 33.6244C169.99 33.8043 169.394 33.9093 168.648 33.9093V35.9093C169.574 35.9093 170.424 35.78 171.175 35.4911L170.457 33.6244ZM183.859 17.6125L184.707 17.0811L184.413 16.6125H183.859V17.6125ZM187.961 24.1515L187.114 24.6829L187.961 26.0335L188.808 24.6829L187.961 24.1515ZM192.062 17.6125V16.6125H191.509L191.215 17.0811L192.062 17.6125ZM194.699 17.6125L195.542 18.1503L196.523 16.6125H194.699V17.6125ZM189.309 26.0617L188.466 25.5238L188.122 26.0629L188.467 26.6012L189.309 26.0617ZM194.828 34.675V35.675H196.657L195.67 34.1354L194.828 34.675ZM192.168 34.675L191.322 35.2086L191.616 35.675H192.168V34.675ZM187.961 28.007L188.807 27.4734L187.961 26.1329L187.115 27.4734L187.961 28.007ZM183.754 34.675V35.675H184.305L184.6 35.2086L183.754 34.675ZM181.094 34.675L180.252 34.1354L179.265 35.675H181.094V34.675ZM186.613 26.0617L187.455 26.6012L187.8 26.0629L187.456 25.5238L186.613 26.0617ZM181.223 17.6125V16.6125H179.398L180.38 18.1503L181.223 17.6125ZM183.012 18.1438L187.114 24.6829L188.808 23.6202L184.707 17.0811L183.012 18.1438ZM188.808 24.6829L192.91 18.1438L191.215 17.0811L187.114 23.6202L188.808 24.6829ZM192.062 18.6125H194.699V16.6125H192.062V18.6125ZM193.856 17.0746L188.466 25.5238L190.152 26.5995L195.542 18.1503L193.856 17.0746ZM188.467 26.6012L193.986 35.2145L195.67 34.1354L190.151 25.5221L188.467 26.6012ZM194.828 33.675H192.168V35.675H194.828V33.675ZM193.014 34.1414L188.807 27.4734L187.115 28.5406L191.322 35.2086L193.014 34.1414ZM187.115 27.4734L182.908 34.1414L184.6 35.2086L188.807 28.5406L187.115 27.4734ZM183.754 33.675H181.094V35.675H183.754V33.675ZM181.936 35.2145L187.455 26.6012L185.771 25.5221L180.252 34.1354L181.936 35.2145ZM187.456 25.5238L182.066 17.0746L180.38 18.1503L185.77 26.5995L187.456 25.5238ZM181.223 18.6125H183.859V16.6125H181.223V18.6125Z" fill="#E4DBDB"/>
<defs>
<linearGradient id="paint0_linear_0_1" x1="25.5" y1="0" x2="-5.54624" y2="38.3103" gradientUnits="userSpaceOnUse">
<stop stop-color="#324CBD"/>
<stop offset="0.395553" stop-color="#3858E2"/>
<stop offset="0.703125" stop-color="#8458CA" stop-opacity="0.83"/>
<stop offset="1" stop-color="#935CDA" stop-opacity="0.88"/>
</linearGradient>
<linearGradient id="paint1_linear_0_1" x1="45" y1="5.84998" x2="14.3217" y2="38.3139" gradientUnits="userSpaceOnUse">
<stop offset="0.00621232" stop-color="#324CBD"/>
<stop offset="1" stop-color="#784DB4"/>
</linearGradient>
</defs>
</svg>
